<svg width="1280" height="720" viewBox="0 0 1280 720" fill="none" xmlns="http://www.w3.org/2000/svg">
  <rect width="1280" height="720" fill="#f8fafc"/>
  <rect x="0" y="0" width="1280" height="80" fill="#10b981"/>
  <text x="40" y="45" fill="white" font-family="system-ui" font-size="24" font-weight="700">ByteWise Nutritionist</text>
  <text x="1100" y="45" fill="white" font-family="system-ui" font-size="16">Dashboard</text>
  <rect x="40" y="120" width="600" height="280" rx="12" fill="white" stroke="#e2e8f0"/>
  <text x="60" y="155" fill="#374151" font-family="system-ui" font-size="20" font-weight="600">Nutrition Overview</text>
  <circle cx="200" cy="260" r="60" fill="#10b981" opacity="0.2"/>
  <text x="200" y="265" text-anchor="middle" fill="#10b981" font-family="system-ui" font-size="18" font-weight="600">1,847</text>
  <text x="200" y="285" text-anchor="middle" fill="#10b981" font-family="system-ui" font-size="12">calories</text>
  <rect x="300" y="200" width="300" height="20" rx="10" fill="#e5e7eb"/>
  <rect x="300" y="200" width="210" height="20" rx="10" fill="#10b981"/>
  <text x="300" y="245" fill="#374151" font-family="system-ui" font-size="14">Daily Goal: 2,200 calories (84% complete)</text>
  <rect x="680" y="120" width="560" height="280" rx="12" fill="white" stroke="#e2e8f0"/>
  <text x="700" y="155" fill="#374151" font-family="system-ui" font-size="20" font-weight="600">Meal Planning</text>
  <rect x="700" y="180" width="520" height="60" rx="8" fill="#f9fafb"/>
  <text x="720" y="205" fill="#374151" font-family="system-ui" font-size="16" font-weight="500">Breakfast</text>
  <text x="720" y="225" fill="#6b7280" font-family="system-ui" font-size="14">Oatmeal with berries and nuts</text>
  <text x="1180" y="215" text-anchor="end" fill="#10b981" font-family="system-ui" font-size="16">420 cal</text>
  <rect x="700" y="250" width="520" height="60" rx="8" fill="#f9fafb"/>
  <text x="720" y="275" fill="#374151" font-family="system-ui" font-size="16" font-weight="500">Lunch</text>
  <text x="720" y="295" fill="#6b7280" font-family="system-ui" font-size="14">Grilled chicken salad with quinoa</text>
  <text x="1180" y="285" text-anchor="end" fill="#10b981" font-family="system-ui" font-size="16">485 cal</text>
  <rect x="700" y="320" width="520" height="60" rx="8" fill="#f9fafb"/>
  <text x="720" y="345" fill="#374151" font-family="system-ui" font-size="16" font-weight="500">Dinner</text>
  <text x="720" y="365" fill="#6b7280" font-family="system-ui" font-size="14">Salmon with roasted vegetables</text>
  <text x="1180" y="355" text-anchor="end" fill="#10b981" font-family="system-ui" font-size="16">520 cal</text>
</svg>